<svg id="Calque_1" data-name="Calque 1" xmlns="http://www.w3.org/2000/svg" xmlns:xlink="http://www.w3.org/1999/xlink" viewBox="0 0 1404.79 1890.13"><defs><linearGradient id="Dégradé_sans_nom_40" x1="541.86" y1="1808.42" x2="1555.04" y2="401.46" gradientUnits="userSpaceOnUse"><stop offset="0" stop-color="#ff4a4a"/><stop offset="0.49" stop-color="#765edd"/><stop offset="0.58" stop-color="#7675df"/><stop offset="0.77" stop-color="#75b0e4"/><stop offset="0.93" stop-color="#74e3e8"/></linearGradient></defs><title>logo_2</title><path d="M1057.67,130.23c-8.12-22.62,56.23,160.45,35.66,326.39,0,0,101.48-74.06,337.36-430.62,0,0,153.6,493.7,127.54,698,0,0,57.6-76.8,79.54-156.34,0,0,208.68,938.85-344.22,1249.34-456.67,256.45-823.22-44.71-931.17-229C249.92,1396,241.7,1157.4,339.07,947.57c66.45-143.19,267.57-298,360.68-377.13C864.31,430.56,1057.67,130.23,1057.67,130.23Z" transform="translate(-271.59 -26)" style="fill:url(#Dégradé_sans_nom_40)"/><path d="M1537,883.9s-22.29,84.13-101.8,160.85c19-67.45,45.78-266.26-37-787,0,0-163.9,272.72-464.94,443.55l.3-1.52c3.6-7,28.57-58.35,48.15-161.58,15.27-80.52,16.66-172.15,16.66-172.15l-.42,1.18.22-1.12s-80.87,209.7-366.81,439.31l-.32.22a535.54,535.54,0,0,0-46.91,37.06c-110.38,97.68-180,240.4-180,399.38,0,294.43,238.69,533.12,533.12,533.12,191.11,0,364-105.75,458.15-256.84C1395.35,1518.37,1573.06,1251.81,1537,883.9Z" transform="translate(-271.59 -26)" style="fill:#fff"/><path d="M1275.73,1253.39c32.33-153.22,24.69-260.56-12.43-549.89,0,0-110.53,101.87-241.12,164.23-98.57,47.07-204.81,63.55-263.58,103-88.61,59.42-131.33,115.13-147.33,204.88-29.64,166.21,69.27,338.4,247.55,368.57C1006.08,1569,1212.64,1552.36,1275.73,1253.39Z" transform="translate(-271.59 -26)" style="fill:#e3feff"/><circle cx="424.85" cy="1263.39" r="60.00" style="fill:#765edd"/><circle cx="914.85" cy="1266.49" r="60.00" style="fill:#765edd"/></svg>