<svg id="Calque_1" data-name="Calque 1" xmlns="http://www.w3.org/2000/svg" xmlns:xlink="http://www.w3.org/1999/xlink" viewBox="0 0 1300.74 1750.13"><defs><linearGradient id="Dégradé_sans_nom_40" x1="1051.73" y1="192.22" x2="1052.46" y2="191.21" gradientUnits="userSpaceOnUse"><stop offset="0" stop-color="#ff4a4a"/><stop offset="0.49" stop-color="#765edd"/><stop offset="0.58" stop-color="#7675df"/><stop offset="0.77" stop-color="#75b0e4"/><stop offset="0.93" stop-color="#74e3e8"/></linearGradient><linearGradient id="Dégradé_sans_nom_40-2" x1="587.25" y1="1729.21" x2="1638.54" y2="269.32" xlink:href="#Dégradé_sans_nom_40"/></defs><title>logo_transparent</title><path d="M1052.37,192.67l.11-.17C1051.6,190.06,1051.64,190.24,1052.37,192.67Z" transform="translate(-324.62 -96)" style="fill:url(#Dégradé_sans_nom_40)"/><path d="M1589.61,597.58C1569.29,671.23,1516,742.33,1516,742.33,1540.08,553.13,1397.86,96,1397.86,96c-218.41,330.15-312.37,398.72-312.37,398.72,16.82-135.68-27.66-283.7-33.12-302-4.52,7-180.9,279.59-331.31,407.44-86.21,73.28-272.43,216.61-334,349.2-90.16,194.28-82.54,415.23,21.59,593,100,170.66,439.36,449.51,862.2,212.06C1782.83,1466.89,1589.61,597.58,1589.61,597.58Zm-224.46,880.25c-87.14,139.9-247.26,237.82-424.21,237.82-272.62,0-493.63-221-493.63-493.63,0-147.2,64.43-279.36,166.64-369.8a496,496,0,0,1,43.44-34.31l.3-.2C922.42,605.1,997.31,410.93,997.31,410.93l-.2,1,.39-1.1s-1.29,84.84-15.43,159.4c-18.13,95.59-41.25,143.1-44.58,149.61l-.27,1.41c278.74-158.17,430.51-410.7,430.51-410.7,76.68,482.15,51.87,666.24,34.29,728.69,73.62-71,94.26-148.93,94.26-148.93C1529.69,1231,1365.14,1477.83,1365.14,1477.83Z" transform="translate(-324.62 -96)" style="fill:url(#Dégradé_sans_nom_40-2)"/><g style="opacity:0.13"><path d="M1254.38,1232.48c29.94-141.87,22.86-241.26-11.51-509.16,0,0-102.35,94.32-223.26,152.06C928.34,919,830,934.23,775.56,970.71c-82,55-121.6,106.6-136.42,189.7-27.45,153.9,64.14,313.33,229.22,341.27C1004.7,1524.76,1196,1509.3,1254.38,1232.48Z" transform="translate(-324.62 -96)" style="fill:#e3feff"/></g><circle cx="393.39" cy="1169.81" r="33.74" style="fill:#74e3e8"/><circle cx="847.09" cy="1172.68" r="33.74" style="fill:#74e3e8"/><circle cx="393.39" cy="1169.81" r="33.74" style="fill:none;stroke:#74e3e8;stroke-width:11px"/><circle cx="847.09" cy="1172.68" r="33.74" style="fill:none;stroke:#74e3e8;stroke-width:11px"/></svg>